<svg xmlns="http://www.w3.org/2000/svg" viewBox="0 0 500 110" width="500" height="110">
  <defs>
    <linearGradient id="bg2" x1="0%" y1="0%" x2="100%" y2="100%">
      <stop offset="0%" stop-color="#2D6A4F"/>
      <stop offset="100%" stop-color="#1A2E1A"/>
    </linearGradient>
    <linearGradient id="shine2" x1="0%" y1="0%" x2="0%" y2="100%">
      <stop offset="0%" stop-color="rgba(255,255,255,0.18)"/>
      <stop offset="50%" stop-color="rgba(255,255,255,0)"/>
    </linearGradient>
    <linearGradient id="grn2" x1="0%" y1="0%" x2="8%" y2="100%">
      <stop offset="0%" stop-color="#D8F3DC"/>
      <stop offset="100%" stop-color="#74C69D"/>
    </linearGradient>
  </defs>

  <!-- ── Icon box (96×96, scaled from 200×200 at 0.48) ── -->
  <g transform="translate(7,7) scale(0.48)">
    <rect width="200" height="200" rx="44" fill="url(#bg2)"/>
    <rect width="200" height="90"  rx="44" fill="url(#shine2)"/>
    <rect x="2" y="2" width="196" height="196" rx="42" fill="none" stroke="#52B788" stroke-width="1.5" opacity="0.35"/>
    <rect x="7" y="7" width="186" height="186" rx="38"  fill="none" stroke="rgba(255,255,255,0.055)" stroke-width="1"/>

    <line x1="76" y1="56" x2="76" y2="26" stroke="rgba(216,243,220,0.68)" stroke-width="4" stroke-linecap="round"/>
    <ellipse cx="63" cy="44" rx="6.5" ry="11.5" fill="url(#grn2)" transform="rotate(27 63 44)" opacity="0.82"/>
    <ellipse cx="65" cy="32" rx="6"   ry="10"   fill="url(#grn2)" transform="rotate(22 65 32)" opacity="0.91"/>
    <ellipse cx="89" cy="40" rx="6.5" ry="11.5" fill="url(#grn2)" transform="rotate(-27 89 40)" opacity="0.82"/>
    <ellipse cx="87" cy="28" rx="6"   ry="10"   fill="url(#grn2)" transform="rotate(-22 87 28)" opacity="0.91"/>
    <ellipse cx="76" cy="26" rx="5"   ry="8.5"  fill="#D8F3DC" opacity="0.97"/>
    <line x1="76" y1="26" x2="68" y2="16" stroke="#B7E4C7" stroke-width="2.5" stroke-linecap="round" opacity="0.70"/>
    <line x1="76" y1="26" x2="84" y2="16" stroke="#B7E4C7" stroke-width="2.5" stroke-linecap="round" opacity="0.70"/>

    <line x1="76" y1="54" x2="76" y2="176" stroke="rgba(216,243,220,0.95)" stroke-width="22" stroke-linecap="round"/>
    <path d="M 76 54 A 48 43 0 0 1 76 140" fill="none" stroke="rgba(216,243,220,0.95)" stroke-width="22" stroke-linecap="round"/>
    <path d="M 86 68 A 28 24 0 0 1 86 126" fill="none" stroke="rgba(255,255,255,0.10)" stroke-width="7" stroke-linecap="round"/>
  </g>

  <!-- Divider -->
  <line x1="112" y1="20" x2="112" y2="90" stroke="#D8E4D8" stroke-width="1" opacity="0.45"/>

  <!-- Company name (customizável) -->
  <text x="126" y="54"
        font-family="'Segoe UI','Inter','Helvetica Neue',Arial,sans-serif"
        font-size="32" font-weight="800" fill="#1A2E1A" letter-spacing="-0.3">PADARIA</text>

  <!-- Tagline -->
  <text x="128" y="76"
        font-family="'Segoe UI','Inter','Helvetica Neue',Arial,sans-serif"
        font-size="12" font-weight="600" fill="#40916C" letter-spacing="0.14em">SISTEMA DE GESTÃO</text>
</svg>
